<svg width="393" height="852" viewBox="0 0 393 852" fill="none" xmlns="http://www.w3.org/2000/svg">
<g clip-path="url(#clip0_5914_230)">
<rect width="393" height="852" fill="url(#paint0_linear_5914_230)"/>
<rect x="23" width="57" height="51" rx="10" fill="#F3F3F3"/>
<rect x="28" y="3" width="47" height="45" rx="10" fill="white"/>
<rect x="-27" width="56" height="51" rx="10" fill="#F3F3F3"/>
<rect x="-22" y="3" width="46" height="45" rx="10" fill="white"/>
<rect x="-27" y="94" width="56" height="51" rx="10" fill="#F3F3F3"/>
<rect x="-22" y="99" width="46" height="45" rx="10" fill="white"/>
<rect x="75" width="57" height="51" rx="10" fill="#F3F3F3"/>
<rect x="80" y="3" width="48" height="45" rx="10" fill="white"/>
<rect x="128" width="56" height="51" rx="10" fill="#F3F3F3"/>
<rect x="132" y="3" width="47" height="45" rx="10" fill="white"/>
<rect x="179" width="58" height="51" rx="10" fill="#F3F3F3"/>
<rect x="184" y="3" width="48" height="45" rx="10" fill="white"/>
<rect x="232" width="57" height="51" rx="10" fill="#F3F3F3"/>
<rect x="237" y="3" width="47" height="45" rx="10" fill="white"/>
<rect x="284" width="57" height="51" rx="10" fill="#F3F3F3"/>
<rect x="289" y="3" width="47" height="45" rx="10" fill="white"/>
<rect x="336" width="57" height="51" rx="10" fill="#F3F3F3"/>
<rect x="341" y="3" width="48" height="45" rx="10" fill="white"/>
<rect x="52" y="48" width="57" height="51" rx="10" fill="#F3F3F3"/>
<rect x="57" y="51" width="47" height="43" rx="10" fill="white"/>
<rect y="48" width="57" height="51" rx="10" fill="#F3F3F3"/>
<rect x="5" y="51" width="47" height="43" rx="10" fill="white"/>
<rect x="104" y="48" width="57" height="51" rx="10" fill="#F3F3F3"/>
<rect x="109" y="51" width="47" height="43" rx="10" fill="white"/>
<rect x="156" y="48" width="57" height="51" rx="10" fill="#F3F3F3"/>
<rect x="161" y="51" width="48" height="43" rx="10" fill="white"/>
<rect x="209" y="48" width="56" height="51" rx="10" fill="#F3F3F3"/>
<rect x="213" y="51" width="47" height="43" rx="10" fill="white"/>
<rect x="260" y="48" width="56" height="51" rx="10" fill="#F3F3F3"/>
<rect x="265" y="51" width="46" height="43" rx="10" fill="white"/>
<rect x="311" y="48" width="59" height="51" rx="10" fill="#F3F3F3"/>
<rect x="316" y="51" width="49" height="43" rx="10" fill="white"/>
<rect x="365" y="48" width="56" height="51" rx="10" fill="#F3F3F3"/>
<rect x="370" y="51" width="46" height="43" rx="10" fill="white"/>
<rect x="23" y="188" width="57" height="51" rx="10" fill="#F3F3F3"/>
<rect x="28" y="193" width="47" height="43" rx="10" fill="white"/>
<rect x="75" y="188" width="57" height="51" rx="10" fill="#F3F3F3"/>
<rect x="80" y="193" width="48" height="43" rx="10" fill="white"/>
<rect x="128" y="188" width="56" height="51" rx="10" fill="#F3F3F3"/>
<rect x="132" y="193" width="47" height="43" rx="10" fill="white"/>
<rect x="179" y="188" width="58" height="51" rx="10" fill="#F3F3F3"/>
<rect x="184" y="193" width="48" height="43" rx="10" fill="white"/>
<rect x="232" y="188" width="57" height="51" rx="10" fill="#F3F3F3"/>
<rect x="237" y="193" width="47" height="43" rx="10" fill="white"/>
<rect x="284" y="188" width="57" height="51" rx="10" fill="#F3F3F3"/>
<rect x="289" y="193" width="47" height="43" rx="10" fill="white"/>
<rect x="336" y="188" width="57" height="51" rx="10" fill="#F3F3F3"/>
<rect x="341" y="193" width="48" height="43" rx="10" fill="white"/>
<rect x="52" y="236" width="57" height="51" rx="10" fill="#F3F3F3"/>
<rect x="57" y="239" width="47" height="44" rx="10" fill="white"/>
<rect y="236" width="57" height="51" rx="10" fill="#F3F3F3"/>
<rect x="5" y="239" width="47" height="44" rx="10" fill="white"/>
<rect x="104" y="236" width="57" height="51" rx="10" fill="#F3F3F3"/>
<rect x="109" y="239" width="47" height="44" rx="10" fill="white"/>
<rect x="156" y="236" width="57" height="51" rx="10" fill="#F3F3F3"/>
<rect x="161" y="239" width="48" height="44" rx="10" fill="white"/>
<rect x="209" y="236" width="56" height="51" rx="10" fill="#F3F3F3"/>
<rect x="213" y="239" width="47" height="44" rx="10" fill="white"/>
<rect x="260" y="236" width="56" height="51" rx="10" fill="#F3F3F3"/>
<rect x="265" y="239" width="46" height="44" rx="10" fill="white"/>
<rect x="311" y="236" width="59" height="51" rx="10" fill="#F3F3F3"/>
<rect x="316" y="239" width="49" height="44" rx="10" fill="white"/>
<rect x="365" y="236" width="56" height="51" rx="10" fill="#F3F3F3"/>
<rect x="370" y="239" width="46" height="44" rx="10" fill="white"/>
<rect x="23" y="94" width="57" height="51" rx="10" fill="#F3F3F3"/>
<rect x="28" y="99" width="47" height="43" rx="10" fill="white"/>
<rect x="75" y="94" width="57" height="51" rx="10" fill="#F3F3F3"/>
<rect x="80" y="99" width="48" height="43" rx="10" fill="white"/>
<rect x="128" y="94" width="56" height="51" rx="10" fill="#F3F3F3"/>
<rect x="132" y="99" width="47" height="43" rx="10" fill="white"/>
<rect x="179" y="94" width="58" height="51" rx="10" fill="#F3F3F3"/>
<rect x="184" y="99" width="48" height="43" rx="10" fill="white"/>
<rect x="232" y="94" width="57" height="51" rx="10" fill="#F3F3F3"/>
<rect x="237" y="99" width="47" height="43" rx="10" fill="white"/>
<rect x="284" y="94" width="57" height="51" rx="10" fill="#F3F3F3"/>
<rect x="289" y="99" width="47" height="43" rx="10" fill="white"/>
<rect x="336" y="94" width="57" height="51" rx="10" fill="#F3F3F3"/>
<rect x="341" y="99" width="48" height="43" rx="10" fill="white"/>
<rect x="52" y="142" width="57" height="51" rx="10" fill="#F3F3F3"/>
<rect x="57" y="145" width="47" height="43" rx="10" fill="white"/>
<rect y="142" width="57" height="51" rx="10" fill="#F3F3F3"/>
<rect x="5" y="145" width="47" height="43" rx="10" fill="white"/>
<rect x="104" y="142" width="57" height="51" rx="10" fill="#F3F3F3"/>
<rect x="109" y="145" width="47" height="43" rx="10" fill="white"/>
<rect x="156" y="142" width="57" height="51" rx="10" fill="#F3F3F3"/>
<rect x="161" y="145" width="48" height="43" rx="10" fill="white"/>
<rect x="209" y="142" width="56" height="51" rx="10" fill="#F3F3F3"/>
<rect x="213" y="145" width="47" height="43" rx="10" fill="white"/>
<rect x="260" y="142" width="56" height="51" rx="10" fill="#F3F3F3"/>
<rect x="265" y="145" width="46" height="43" rx="10" fill="white"/>
<rect x="311" y="142" width="59" height="51" rx="10" fill="#F3F3F3"/>
<rect x="316" y="145" width="49" height="43" rx="10" fill="white"/>
<rect x="365" y="142" width="56" height="51" rx="10" fill="#F3F3F3"/>
<rect x="370" y="145" width="46" height="43" rx="10" fill="white"/>
<rect x="23" y="283" width="57" height="51" rx="10" fill="#F3F3F3"/>
<rect x="28" y="287" width="47" height="43" rx="10" fill="white"/>
<rect x="75" y="283" width="57" height="51" rx="10" fill="#F3F3F3"/>
<rect x="80" y="287" width="48" height="43" rx="10" fill="white"/>
<rect x="128" y="283" width="56" height="51" rx="10" fill="#F3F3F3"/>
<rect x="132" y="287" width="47" height="43" rx="10" fill="white"/>
<rect x="179" y="283" width="58" height="51" rx="10" fill="#F3F3F3"/>
<rect x="184" y="287" width="48" height="43" rx="10" fill="white"/>
<rect x="232" y="283" width="57" height="51" rx="10" fill="#F3F3F3"/>
<rect x="237" y="287" width="47" height="43" rx="10" fill="white"/>
<rect x="284" y="283" width="57" height="51" rx="10" fill="#F3F3F3"/>
<rect x="289" y="287" width="47" height="43" rx="10" fill="white"/>
<rect x="336" y="283" width="57" height="51" rx="10" fill="#F3F3F3"/>
<rect x="341" y="287" width="48" height="43" rx="10" fill="white"/>
<rect x="52" y="330" width="57" height="51" rx="10" fill="#F3F3F3"/>
<rect x="57" y="334" width="47" height="43" rx="10" fill="white"/>
<rect y="330" width="57" height="51" rx="10" fill="#F3F3F3"/>
<rect x="5" y="334" width="47" height="43" rx="10" fill="white"/>
<rect x="104" y="330" width="57" height="51" rx="10" fill="#F3F3F3"/>
<rect x="109" y="334" width="47" height="43" rx="10" fill="white"/>
<rect x="156" y="330" width="57" height="51" rx="10" fill="#F3F3F3"/>
<rect x="161" y="334" width="48" height="43" rx="10" fill="white"/>
<rect x="209" y="330" width="56" height="51" rx="10" fill="#F3F3F3"/>
<rect x="213" y="334" width="47" height="43" rx="10" fill="white"/>
<rect x="260" y="330" width="56" height="51" rx="10" fill="#F3F3F3"/>
<rect x="265" y="334" width="46" height="43" rx="10" fill="white"/>
<rect x="311" y="330" width="59" height="51" rx="10" fill="#F3F3F3"/>
<rect x="316" y="334" width="49" height="43" rx="10" fill="white"/>
<rect x="365" y="330" width="56" height="51" rx="10" fill="#F3F3F3"/>
<rect x="370" y="334" width="46" height="43" rx="10" fill="white"/>
<rect x="23" y="471" width="57" height="51" rx="10" fill="#F3F3F3"/>
<rect x="28" y="475" width="47" height="43" rx="10" fill="white"/>
<rect x="75" y="471" width="57" height="51" rx="10" fill="#F3F3F3"/>
<rect x="80" y="475" width="48" height="43" rx="10" fill="white"/>
<rect x="128" y="471" width="56" height="51" rx="10" fill="#F3F3F3"/>
<rect x="132" y="475" width="47" height="43" rx="10" fill="white"/>
<rect x="179" y="471" width="58" height="51" rx="10" fill="#F3F3F3"/>
<rect x="184" y="475" width="48" height="43" rx="10" fill="white"/>
<rect x="232" y="471" width="57" height="51" rx="10" fill="#F3F3F3"/>
<rect x="237" y="475" width="47" height="43" rx="10" fill="white"/>
<rect x="284" y="471" width="57" height="51" rx="10" fill="#F3F3F3"/>
<rect x="289" y="475" width="47" height="43" rx="10" fill="white"/>
<rect x="336" y="471" width="57" height="51" rx="10" fill="#F3F3F3"/>
<rect x="341" y="475" width="48" height="43" rx="10" fill="white"/>
<rect x="52" y="518" width="57" height="51" rx="10" fill="#F3F3F3"/>
<rect x="57" y="522" width="47" height="43" rx="10" fill="white"/>
<rect y="518" width="57" height="51" rx="10" fill="#F3F3F3"/>
<rect x="5" y="522" width="47" height="43" rx="10" fill="white"/>
<rect x="104" y="518" width="57" height="51" rx="10" fill="#F3F3F3"/>
<rect x="109" y="522" width="47" height="43" rx="10" fill="white"/>
<rect x="156" y="518" width="57" height="51" rx="10" fill="#F3F3F3"/>
<rect x="161" y="522" width="48" height="43" rx="10" fill="white"/>
<rect x="209" y="518" width="56" height="51" rx="10" fill="#F3F3F3"/>
<rect x="213" y="522" width="47" height="43" rx="10" fill="white"/>
<rect x="260" y="518" width="56" height="51" rx="10" fill="#F3F3F3"/>
<rect x="265" y="522" width="46" height="43" rx="10" fill="white"/>
<rect x="311" y="518" width="59" height="51" rx="10" fill="#F3F3F3"/>
<rect x="316" y="522" width="49" height="43" rx="10" fill="white"/>
<rect x="365" y="518" width="56" height="51" rx="10" fill="#F3F3F3"/>
<rect x="370" y="522" width="46" height="43" rx="10" fill="white"/>
<rect x="23" y="377" width="57" height="51" rx="10" fill="#F3F3F3"/>
<rect x="28" y="381" width="47" height="43" rx="10" fill="white"/>
<rect x="75" y="377" width="57" height="51" rx="10" fill="#F3F3F3"/>
<rect x="80" y="381" width="48" height="43" rx="10" fill="white"/>
<rect x="128" y="377" width="56" height="51" rx="10" fill="#F3F3F3"/>
<rect x="132" y="381" width="47" height="43" rx="10" fill="white"/>
<rect x="179" y="377" width="58" height="51" rx="10" fill="#F3F3F3"/>
<rect x="184" y="381" width="48" height="43" rx="10" fill="white"/>
<rect x="232" y="377" width="57" height="51" rx="10" fill="#F3F3F3"/>
<rect x="237" y="381" width="47" height="43" rx="10" fill="white"/>
<rect x="284" y="377" width="57" height="51" rx="10" fill="#F3F3F3"/>
<rect x="289" y="381" width="47" height="43" rx="10" fill="white"/>
<rect x="336" y="377" width="57" height="51" rx="10" fill="#F3F3F3"/>
<rect x="341" y="381" width="48" height="43" rx="10" fill="white"/>
<rect x="52" y="424" width="57" height="51" rx="10" fill="#F3F3F3"/>
<rect x="57" y="428" width="47" height="43" rx="10" fill="white"/>
<rect y="424" width="57" height="51" rx="10" fill="#F3F3F3"/>
<rect x="5" y="428" width="47" height="43" rx="10" fill="white"/>
<rect x="104" y="424" width="57" height="51" rx="10" fill="#F3F3F3"/>
<rect x="109" y="428" width="47" height="43" rx="10" fill="white"/>
<rect x="156" y="424" width="57" height="51" rx="10" fill="#F3F3F3"/>
<rect x="161" y="428" width="48" height="43" rx="10" fill="white"/>
<rect x="209" y="424" width="56" height="51" rx="10" fill="#F3F3F3"/>
<rect x="213" y="428" width="47" height="43" rx="10" fill="white"/>
<rect x="260" y="424" width="56" height="51" rx="10" fill="#F3F3F3"/>
<rect x="265" y="428" width="46" height="43" rx="10" fill="white"/>
<rect x="311" y="424" width="59" height="51" rx="10" fill="#F3F3F3"/>
<rect x="316" y="428" width="49" height="43" rx="10" fill="white"/>
<rect x="365" y="424" width="56" height="51" rx="10" fill="#F3F3F3"/>
<rect x="370" y="428" width="46" height="43" rx="10" fill="white"/>
<rect x="23" y="565" width="57" height="51" rx="10" fill="#F3F3F3"/>
<rect x="28" y="569" width="47" height="44" rx="10" fill="white"/>
<rect x="75" y="565" width="57" height="51" rx="10" fill="#F3F3F3"/>
<rect x="80" y="569" width="48" height="44" rx="10" fill="white"/>
<rect x="128" y="565" width="56" height="51" rx="10" fill="#F3F3F3"/>
<rect x="132" y="569" width="47" height="44" rx="10" fill="white"/>
<rect x="179" y="565" width="58" height="51" rx="10" fill="#F3F3F3"/>
<rect x="184" y="569" width="48" height="44" rx="10" fill="white"/>
<rect x="232" y="565" width="57" height="51" rx="10" fill="#F3F3F3"/>
<rect x="237" y="569" width="47" height="44" rx="10" fill="white"/>
<rect x="284" y="565" width="57" height="51" rx="10" fill="#F3F3F3"/>
<rect x="289" y="569" width="47" height="44" rx="10" fill="white"/>
<rect x="336" y="565" width="57" height="51" rx="10" fill="#F3F3F3"/>
<rect x="341" y="569" width="48" height="44" rx="10" fill="white"/>
<rect x="52" y="613" width="57" height="51" rx="10" fill="#F3F3F3"/>
<rect x="57" y="616" width="47" height="43" rx="10" fill="white"/>
<rect y="613" width="57" height="51" rx="10" fill="#F3F3F3"/>
<rect x="5" y="616" width="47" height="43" rx="10" fill="white"/>
<rect x="104" y="613" width="57" height="51" rx="10" fill="#F3F3F3"/>
<rect x="109" y="616" width="47" height="43" rx="10" fill="white"/>
<rect x="156" y="613" width="57" height="51" rx="10" fill="#F3F3F3"/>
<rect x="161" y="616" width="48" height="43" rx="10" fill="white"/>
<rect x="209" y="613" width="56" height="51" rx="10" fill="#F3F3F3"/>
<rect x="213" y="616" width="47" height="43" rx="10" fill="white"/>
<rect x="260" y="613" width="56" height="51" rx="10" fill="#F3F3F3"/>
<rect x="265" y="616" width="46" height="43" rx="10" fill="white"/>
<rect x="311" y="613" width="59" height="51" rx="10" fill="#F3F3F3"/>
<rect x="316" y="616" width="49" height="43" rx="10" fill="white"/>
<rect x="365" y="613" width="56" height="51" rx="10" fill="#F3F3F3"/>
<rect x="370" y="616" width="46" height="43" rx="10" fill="white"/>
<rect x="23" y="753" width="57" height="51" rx="10" fill="#F3F3F3"/>
<rect x="28" y="758" width="47" height="43" rx="10" fill="white"/>
<rect x="75" y="753" width="57" height="51" rx="10" fill="#F3F3F3"/>
<rect x="80" y="758" width="48" height="43" rx="10" fill="white"/>
<rect x="128" y="753" width="56" height="51" rx="10" fill="#F3F3F3"/>
<rect x="132" y="758" width="47" height="43" rx="10" fill="white"/>
<rect x="179" y="753" width="58" height="51" rx="10" fill="#F3F3F3"/>
<rect x="184" y="758" width="48" height="43" rx="10" fill="white"/>
<rect x="232" y="753" width="57" height="51" rx="10" fill="#F3F3F3"/>
<rect x="237" y="758" width="47" height="43" rx="10" fill="white"/>
<rect x="284" y="753" width="57" height="51" rx="10" fill="#F3F3F3"/>
<rect x="289" y="758" width="47" height="43" rx="10" fill="white"/>
<rect x="336" y="753" width="57" height="51" rx="10" fill="#F3F3F3"/>
<rect x="341" y="758" width="48" height="43" rx="10" fill="white"/>
<rect x="52" y="801" width="57" height="51" rx="10" fill="#F3F3F3"/>
<rect x="57" y="804" width="47" height="45" rx="10" fill="white"/>
<rect y="801" width="57" height="51" rx="10" fill="#F3F3F3"/>
<rect x="5" y="804" width="47" height="45" rx="10" fill="white"/>
<rect x="104" y="801" width="57" height="51" rx="10" fill="#F3F3F3"/>
<rect x="109" y="804" width="47" height="45" rx="10" fill="white"/>
<rect x="156" y="801" width="57" height="51" rx="10" fill="#F3F3F3"/>
<rect x="161" y="804" width="48" height="45" rx="10" fill="white"/>
<rect x="209" y="801" width="56" height="51" rx="10" fill="#F3F3F3"/>
<rect x="213" y="804" width="47" height="45" rx="10" fill="white"/>
<rect x="260" y="801" width="56" height="51" rx="10" fill="#F3F3F3"/>
<rect x="265" y="804" width="46" height="45" rx="10" fill="white"/>
<rect x="311" y="801" width="59" height="51" rx="10" fill="#F3F3F3"/>
<rect x="316" y="804" width="49" height="45" rx="10" fill="white"/>
<rect x="365" y="801" width="56" height="51" rx="10" fill="#F3F3F3"/>
<rect x="370" y="804" width="46" height="45" rx="10" fill="white"/>
<rect x="23" y="659" width="57" height="51" rx="10" fill="#F3F3F3"/>
<rect x="28" y="664" width="47" height="43" rx="10" fill="white"/>
<rect x="75" y="659" width="57" height="51" rx="10" fill="#F3F3F3"/>
<rect x="80" y="664" width="48" height="43" rx="10" fill="white"/>
<rect x="128" y="659" width="56" height="51" rx="10" fill="#F3F3F3"/>
<rect x="132" y="664" width="47" height="43" rx="10" fill="white"/>
<rect x="179" y="659" width="58" height="51" rx="10" fill="#F3F3F3"/>
<rect x="184" y="664" width="48" height="43" rx="10" fill="white"/>
<rect x="232" y="659" width="57" height="51" rx="10" fill="#F3F3F3"/>
<rect x="237" y="664" width="47" height="43" rx="10" fill="white"/>
<rect x="284" y="659" width="57" height="51" rx="10" fill="#F3F3F3"/>
<rect x="289" y="664" width="47" height="43" rx="10" fill="white"/>
<rect x="336" y="659" width="57" height="51" rx="10" fill="#F3F3F3"/>
<rect x="341" y="664" width="48" height="43" rx="10" fill="white"/>
<rect x="52" y="707" width="57" height="51" rx="10" fill="#F3F3F3"/>
<rect x="57" y="710" width="47" height="43" rx="10" fill="white"/>
<rect y="707" width="57" height="51" rx="10" fill="#F3F3F3"/>
<rect x="5" y="710" width="47" height="43" rx="10" fill="white"/>
<rect x="104" y="707" width="57" height="51" rx="10" fill="#F3F3F3"/>
<rect x="109" y="710" width="47" height="43" rx="10" fill="white"/>
<rect x="156" y="707" width="57" height="51" rx="10" fill="#F3F3F3"/>
<rect x="161" y="710" width="48" height="43" rx="10" fill="white"/>
<rect x="209" y="707" width="56" height="51" rx="10" fill="#F3F3F3"/>
<rect x="213" y="710" width="47" height="43" rx="10" fill="white"/>
<rect x="260" y="707" width="56" height="51" rx="10" fill="#F3F3F3"/>
<rect x="265" y="710" width="46" height="43" rx="10" fill="white"/>
<rect x="311" y="707" width="59" height="51" rx="10" fill="#F3F3F3"/>
<rect x="316" y="710" width="49" height="43" rx="10" fill="white"/>
<rect x="365" y="707" width="56" height="51" rx="10" fill="#F3F3F3"/>
<rect x="370" y="710" width="46" height="43" rx="10" fill="white"/>
<rect x="-28" y="188" width="56" height="51" rx="10" fill="#F3F3F3"/>
<rect x="-23" y="191" width="46" height="45" rx="10" fill="white"/>
<rect x="-28" y="284" width="56" height="51" rx="10" fill="#F3F3F3"/>
<rect x="-23" y="287" width="46" height="45" rx="10" fill="white"/>
<rect x="-30" y="377" width="56" height="51" rx="10" fill="#F3F3F3"/>
<rect x="-25" y="380" width="46" height="45" rx="10" fill="white"/>
<rect x="-30" y="471" width="56" height="51" rx="10" fill="#F3F3F3"/>
<rect x="-25" y="474" width="46" height="45" rx="10" fill="white"/>
<rect x="-30" y="565" width="56" height="51" rx="10" fill="#F3F3F3"/>
<rect x="-25" y="568" width="46" height="45" rx="10" fill="white"/>
<rect x="-28" y="660" width="56" height="51" rx="10" fill="#F3F3F3"/>
<rect x="-23" y="663" width="46" height="45" rx="10" fill="white"/>
<rect x="-30" y="753" width="56" height="51" rx="10" fill="#F3F3F3"/>
<rect x="-25" y="756" width="46" height="45" rx="10" fill="white"/>
<rect x="-5" y="-352" width="393" height="1204" rx="10" fill="url(#paint1_linear_5914_230)"/>
</g>
<defs>
<linearGradient id="paint0_linear_5914_230" x1="197" y1="-514.5" x2="196.5" y2="852" gradientUnits="userSpaceOnUse">
<stop stop-color="white"/>
<stop offset="1" stop-color="white"/>
</linearGradient>
<linearGradient id="paint1_linear_5914_230" x1="192" y1="-22.4329" x2="191.232" y2="852" gradientUnits="userSpaceOnUse">
<stop stop-color="white" stop-opacity="0"/>
<stop offset="1" stop-color="white"/>
</linearGradient>
<clipPath id="clip0_5914_230">
<rect width="393" height="852" fill="white"/>
</clipPath>
</defs>
</svg>
